<svg width="150" height="50" viewBox="0 0 150 50" xmlns="http://www.w3.org/2000/svg">
  <!-- Car icon -->
  <g transform="translate(5, 10)">
    <!-- Car body -->
    <path d="M3 15 L3 18 L5 18 L5 20 L7 20 L7 18 L17 18 L17 20 L19 20 L19 18 L21 18 L21 15 L19 12 L18 8 L6 8 L5 12 Z" 
          fill="#cbd5e1" stroke="#e2e8f0" stroke-width="0.5"/>
    
    <!-- Car windows -->
    <path d="M6 8 L7 12 L17 12 L18 8 Z" fill="#94a3b8"/>
    
    <!-- Car wheels -->
    <circle cx="7" cy="18" r="2" fill="#f8fafc"/>
    <circle cx="17" cy="18" r="2" fill="#f8fafc"/>
    <circle cx="7" cy="18" r="1" fill="#cbd5e1"/>
    <circle cx="17" cy="18" r="1" fill="#cbd5e1"/>
  </g>
  
  <!-- Company name -->
  <text x="35" y="22" font-family="Inter, Arial, sans-serif" font-size="16" font-weight="700" fill="#f8fafc">
    Auto
  </text>
  <text x="35" y="38" font-family="Inter, Arial, sans-serif" font-size="16" font-weight="700" fill="#cbd5e1">
    4Sale
  </text>
  
  <!-- Accent line -->
  <line x1="85" y1="18" x2="95" y2="18" stroke="#cbd5e1" stroke-width="2" stroke-linecap="round"/>
  <line x1="85" y1="28" x2="95" y2="28" stroke="#10b981" stroke-width="2" stroke-linecap="round"/>
  
  <!-- Tagline -->
  <text x="105" y="20" font-family="Inter, Arial, sans-serif" font-size="9" font-weight="400" fill="#94a3b8">
    PREMIUM
  </text>
  <text x="105" y="32" font-family="Inter, Arial, sans-serif" font-size="9" font-weight="400" fill="#94a3b8">
    VEHICLES
  </text>
</svg>
